# xmcd CD database file
#
# Track frame offsets:
#	150
#	16250
#	31475
#	54651
#
# Disc length: 944 seconds
#
# Revision: 0
# Processed by: cddbd v1.5.1PL0 Copyright (c) Steve Scherf et al.
# Submitted via: CDex 1.50
#
DISCID=2a03ae04
DTITLE=倭製ジェロニモ&ラブゲリラエクスペリエンス - プロペラ
DYEAR=2004
DGENRE=Rock
TTITLE0=プロペラ
TTITLE1=DODGY
TTITLE2=Planet　Bound
TTITLE3=頭文字N
EXTD=YEAR: 2004
EXTT0=
EXTT1=
EXTT2=
EXTT3=
PLAYORDER=
